HIERARCHY
ROOT joint_0
{
	OFFSET 0.000000 0.000000 0.000000
	CHANNELS 6 Xposition Yposition Zposition Zrotation Yrotation Xrotation 
	JOINT joint_1
	{
		OFFSET 6.579712 -2.778931 100.531982
		CHANNELS 3 Zrotation Yrotation Xrotation
		JOINT joint_2
		{
			OFFSET -3.313232 -1.302856 91.974976
			CHANNELS 3 Zrotation Yrotation Xrotation
			JOINT joint_3
			{
				OFFSET -3.421509 -1.641846 91.864014
				CHANNELS 3 Zrotation Yrotation Xrotation
				JOINT joint_4
				{
					OFFSET 7.697388 -4.642578 123.278931
					CHANNELS 3 Zrotation Yrotation Xrotation
					JOINT joint_5
					{
						OFFSET 24.842529 -5.941528 79.695068
						CHANNELS 3 Zrotation Yrotation Xrotation
						End Site
						{
							OFFSET 0.000000 0.000000 0.000000
						}
					}
				}
				JOINT joint_6
				{
					OFFSET -0.159668 -29.112976 68.364014
					CHANNELS 3 Zrotation Yrotation Xrotation
					JOINT joint_7
					{
						OFFSET -18.356079 -115.987061 -20.069092
						CHANNELS 3 Zrotation Yrotation Xrotation
						JOINT joint_8
						{
							OFFSET 31.719482 -11.733276 -267.170898
							CHANNELS 3 Zrotation Yrotation Xrotation
							JOINT joint_9
							{
								OFFSET 29.329956 -5.879517 -234.654053
								CHANNELS 3 Zrotation Yrotation Xrotation
								End Site
								{
									OFFSET 0.000000 0.000000 0.000000
								}
							}
						}
					}
				}
				JOINT joint_10
				{
					OFFSET 8.802979 23.897949 69.798950
					CHANNELS 3 Zrotation Yrotation Xrotation
					JOINT joint_11
					{
						OFFSET 21.159058 115.524292 -19.981934
						CHANNELS 3 Zrotation Yrotation Xrotation
						JOINT joint_12
						{
							OFFSET 18.809204 5.403442 -268.593018
							CHANNELS 3 Zrotation Yrotation Xrotation
							JOINT joint_13
							{
								OFFSET 20.807861 0.421265 -235.639038
								CHANNELS 3 Zrotation Yrotation Xrotation
								End Site
								{
									OFFSET 0.000000 0.000000 0.000000
								}
							}
						}
					}
				}
			}
		}
	}
	JOINT joint_14
	{
		OFFSET -9.713379 -79.513916 -99.348022
		CHANNELS 3 Zrotation Yrotation Xrotation
		JOINT joint_15
		{
			OFFSET -40.607788 -6.518372 -502.938019
			CHANNELS 3 Zrotation Yrotation Xrotation
			JOINT joint_16
			{
				OFFSET -19.807617 -7.437378 -399.590012
				CHANNELS 3 Zrotation Yrotation Xrotation
				JOINT joint_17
				{
					OFFSET 171.701660 -44.751282 -77.782000
					CHANNELS 3 Zrotation Yrotation Xrotation
					End Site
					{
						OFFSET 0.000000 0.000000 0.000000
					}
				}
			}
		}
	}
	JOINT joint_18
	{
		OFFSET 17.854858 79.618652 -98.128052
		CHANNELS 3 Zrotation Yrotation Xrotation
		JOINT joint_19
		{
			OFFSET -24.848877 16.861816 -503.722992
			CHANNELS 3 Zrotation Yrotation Xrotation
			JOINT joint_20
			{
				OFFSET -30.162476 14.470093 -398.750008
				CHANNELS 3 Zrotation Yrotation Xrotation
				JOINT joint_21
				{
					OFFSET 176.096680 -10.987549 -80.021000
					CHANNELS 3 Zrotation Yrotation Xrotation
					End Site
					{
						OFFSET 0.000000 0.000000 0.000000
					}
				}
			}
		}
	}
}
MOTION
Frames: 13
Frame Time: 0.016667
-1137.110718 843.266541 1099.160034 29.917402 0.109584 -0.706831 -0.044928 -1.770634 -0.129381 0.034713 0.266054 0.007158 0.023385 -0.363816 -0.035182 0.150863 1.374410 -0.241768 0.000000 0.000000 0.000000 -0.089045 2.737240 0.974089 0.144967 2.715978 0.972281 -0.103273 -1.723197 -1.876119 0.000000 0.000000 0.000000 0.757759 0.721326 1.167725 -0.483109 1.301708 -3.101580 0.018296 -2.424994 4.468932 0.000000 0.000000 0.000000 2.806077 -0.776849 0.918849 2.855165 0.495778 0.341922 2.909253 -1.941247 0.812843 0.000000 0.000000 0.000000 -1.580995 -0.676685 0.632025 -1.481885 1.387960 0.038072 -1.509130 -0.588520 -0.723928 0.000000 0.000000 0.000000 
-1137.338501 843.135193 1099.170044 29.922176 0.107283 -0.707748 -0.038881 -1.731402 -0.118319 0.038239 0.261383 0.006735 0.027152 -0.356270 -0.033690 0.151854 1.372902 -0.246199 0.000000 0.000000 0.000000 -0.093909 2.750264 0.965876 0.145175 2.724034 0.987868 -0.106285 -1.749774 -1.909956 0.000000 0.000000 0.000000 0.763322 0.715939 1.172269 -0.478728 1.289101 -3.058266 0.018931 -2.414649 4.461643 0.000000 0.000000 0.000000 2.802668 -0.797745 0.917148 2.851832 0.512412 0.346027 2.906963 -1.937786 0.812675 0.000000 0.000000 0.000000 -1.582150 -0.698211 0.630929 -1.482136 1.404639 0.042645 -1.509380 -0.582630 -0.723678 0.000000 0.000000 0.000000 
-1137.597900 842.998596 1099.181030 29.926327 0.101403 -0.708269 -0.033039 -1.677211 -0.104876 0.040666 0.253244 0.005217 0.029972 -0.345605 -0.031484 0.152597 1.369230 -0.250244 0.000000 0.000000 0.000000 -0.098337 2.756636 0.958289 0.144691 2.726543 0.998058 -0.108991 -1.768674 -1.937777 0.000000 0.000000 0.000000 0.769255 0.707426 1.178230 -0.474327 1.273964 -3.016694 0.019621 -2.403963 4.454036 0.000000 0.000000 0.000000 2.799760 -0.817949 0.914262 2.848781 0.532318 0.351017 2.905223 -1.935771 0.812374 0.000000 0.000000 0.000000 -1.583495 -0.720274 0.628304 -1.482458 1.427740 0.047969 -1.509996 -0.581687 -0.723902 0.000000 0.000000 0.000000 
-1137.880371 842.858093 1099.193970 29.930481 0.093275 -0.708605 -0.027829 -1.613388 -0.089264 0.041889 0.243220 0.002492 0.031721 -0.332520 -0.028363 0.153003 1.365372 -0.253212 0.000000 0.000000 0.000000 -0.100064 2.759104 0.950622 0.143815 2.726069 1.005541 -0.111543 -1.783245 -1.962352 0.000000 0.000000 0.000000 0.774891 0.697341 1.184385 -0.469773 1.257305 -2.974506 0.020367 -2.393134 4.446066 0.000000 0.000000 0.000000 2.796849 -0.838261 0.910671 2.845631 0.555181 0.356238 2.903580 -1.935226 0.811734 0.000000 0.000000 0.000000 -1.584589 -0.742971 0.624670 -1.482443 1.454865 0.053683 -1.510416 -0.581992 -0.724115 0.000000 0.000000 0.000000 
-1138.168335 842.721375 1099.213989 29.936628 0.087852 -0.707302 -0.024177 -1.553531 -0.073247 0.041742 0.235004 -0.001013 0.032086 -0.320046 -0.025418 0.152836 1.365948 -0.253497 0.000000 0.000000 0.000000 -0.101363 2.763304 0.941910 0.142962 2.727120 1.013608 -0.113804 -1.799597 -1.985517 0.000000 0.000000 0.000000 0.779971 0.689094 1.190424 -0.465052 1.242661 -2.932655 0.021417 -2.379910 4.437046 0.000000 0.000000 0.000000 2.792172 -0.861018 0.904724 2.840619 0.577628 0.361324 2.900119 -1.935563 0.810041 0.000000 0.000000 0.000000 -1.583912 -0.770332 0.618001 -1.480659 1.484134 0.059727 -1.508983 -0.576533 -0.723132 0.000000 0.000000 0.000000 
-1138.454468 842.591431 1099.239990 29.946482 0.086062 -0.704397 -0.024660 -1.501669 -0.058930 0.037983 0.229139 -0.003314 0.028737 -0.310878 -0.022087 0.152744 1.374675 -0.252585 0.000000 0.000000 0.000000 -0.094798 2.771323 0.928202 0.142566 2.731789 1.026040 -0.115879 -1.816572 -2.007553 0.000000 0.000000 0.000000 0.789405 0.685268 1.198208 -0.460322 1.232448 -2.893190 0.022958 -2.362947 4.427951 0.000000 0.000000 0.000000 2.785647 -0.885235 0.897228 2.833798 0.596712 0.365491 2.894715 -1.937581 0.807027 0.000000 0.000000 0.000000 -1.581155 -0.801443 0.608109 -1.476962 1.512025 0.066118 -1.505387 -0.563521 -0.720700 0.000000 0.000000 0.000000 
-1138.746216 842.465271 1099.271973 29.958025 0.086362 -0.700125 -0.026817 -1.452383 -0.042985 0.032569 0.224407 -0.007758 0.023747 -0.302822 -0.019248 0.151824 1.389269 -0.247906 0.000000 0.000000 0.000000 -0.085566 2.781152 0.914081 0.142208 2.738512 1.039327 -0.117731 -1.835261 -2.028647 0.000000 0.000000 0.000000 0.799699 0.683468 1.206550 -0.455443 1.224293 -2.853941 0.024790 -2.343671 4.417993 0.000000 0.000000 0.000000 2.777549 -0.911228 0.887696 2.825337 0.615198 0.369366 2.887686 -1.940615 0.803013 0.000000 0.000000 0.000000 -1.576656 -0.836310 0.595477 -1.471536 1.541710 0.072901 -1.499955 -0.544701 -0.717076 0.000000 0.000000 0.000000 
-1139.042480 842.333008 1099.307983 29.968834 0.089527 -0.693072 -0.028410 -1.401124 -0.030371 0.027753 0.218641 -0.010581 0.019352 -0.292686 -0.016257 0.150960 1.406122 -0.243340 0.000000 0.000000 0.000000 -0.085482 2.793113 0.899444 0.141933 2.745258 1.054986 -0.119575 -1.865660 -2.054511 0.000000 0.000000 0.000000 0.811117 0.681583 1.211377 -0.450999 1.215502 -2.816410 0.026327 -2.326642 4.408018 0.000000 0.000000 0.000000 2.766927 -0.942227 0.873227 2.814030 0.637325 0.373756 2.878061 -1.943571 0.797854 0.000000 0.000000 0.000000 -1.571103 -0.878323 0.580384 -1.464726 1.577859 0.078864 -1.493227 -0.518602 -0.712415 0.000000 0.000000 0.000000 
-1139.340088 842.190857 1099.348999 29.978407 0.096432 -0.681638 -0.028560 -1.345868 -0.023806 0.024352 0.209048 -0.011748 0.016378 -0.280177 -0.013565 0.149538 1.425940 -0.236784 0.000000 0.000000 0.000000 -0.099549 2.809002 0.885531 0.141881 2.752875 1.074745 -0.121462 -1.914707 -2.088284 0.000000 0.000000 0.000000 0.825114 0.679366 1.211339 -0.446942 1.205083 -2.779209 0.027555 -2.311680 4.399186 0.000000 0.000000 0.000000 2.752095 -0.979069 0.851466 2.797977 0.663574 0.379227 2.864139 -1.949117 0.790081 0.000000 0.000000 0.000000 -1.564251 -0.929729 0.562795 -1.456034 1.621840 0.081247 -1.484744 -0.477312 -0.706021 0.000000 0.000000 0.000000 
-1139.642822 842.043518 1099.394043 29.987557 0.106227 -0.667667 -0.028198 -1.288604 -0.019295 0.021445 0.197419 -0.012000 0.013925 -0.264085 -0.011628 0.147868 1.447523 -0.229407 0.000000 0.000000 0.000000 -0.122378 2.826642 0.871774 0.141818 2.760350 1.096770 -0.123379 -1.975504 -2.126521 0.000000 0.000000 0.000000 0.839161 0.676825 1.208614 -0.443333 1.194131 -2.743712 0.028431 -2.299661 4.390184 0.000000 0.000000 0.000000 2.734821 -1.021031 0.825094 2.779240 0.693637 0.384881 2.847768 -1.954740 0.781191 0.000000 0.000000 0.000000 -1.556537 -0.988495 0.542666 -1.446139 1.672586 0.083424 -1.475057 -0.428189 -0.698596 0.000000 0.000000 0.000000 
-1139.966064 841.887939 1099.435059 29.995675 0.115033 -0.653456 -0.027498 -1.221835 -0.012226 0.018428 0.185305 -0.012998 0.011400 -0.247716 -0.009665 0.146209 1.463168 -0.223113 0.000000 0.000000 0.000000 -0.146567 2.841895 0.860168 0.141088 2.766301 1.114518 -0.125079 -2.035716 -2.162259 0.000000 0.000000 0.000000 0.850197 0.673033 1.207694 -0.440586 1.184196 -2.716198 0.028781 -2.292138 4.378469 0.000000 0.000000 0.000000 2.720010 -1.066896 0.796696 2.762873 0.729866 0.390918 2.833802 -1.952477 0.775468 0.000000 0.000000 0.000000 -1.547824 -1.050393 0.519480 -1.435204 1.731991 0.090195 -1.464583 -0.392085 -0.691610 0.000000 0.000000 0.000000 
-1140.322266 841.717224 1099.468994 30.002157 0.119533 -0.640644 -0.025686 -1.138611 0.000289 0.015762 0.172602 -0.014768 0.009293 -0.230659 -0.007256 0.144890 1.470452 -0.219290 0.000000 0.000000 0.000000 -0.172148 2.852462 0.853385 0.139175 2.769748 1.122765 -0.126212 -2.096201 -2.193477 0.000000 0.000000 0.000000 0.853238 0.666717 1.208517 -0.439038 1.175156 -2.698420 0.028272 -2.292432 4.363390 0.000000 0.000000 0.000000 2.710381 -1.117046 0.767028 2.751570 0.777274 0.398096 2.824988 -1.935370 0.775984 0.000000 0.000000 0.000000 -1.538206 -1.114876 0.492947 -1.423304 1.806472 0.105582 -1.453421 -0.376230 -0.685554 0.000000 0.000000 0.000000 
-1140.698120 841.538757 1099.500000 30.007878 0.123612 -0.627829 -0.023391 -1.048294 0.015339 0.013368 0.161595 -0.016871 0.007469 -0.213666 -0.004448 0.143549 1.472031 -0.216316 0.000000 0.000000 0.000000 -0.200135 2.860734 0.848620 0.136573 2.771633 1.126331 -0.127113 -2.156160 -2.222163 0.000000 0.000000 0.000000 0.851643 0.659193 1.210183 -0.438360 1.167186 -2.688096 0.027173 -2.297836 4.345527 0.000000 0.000000 0.000000 2.703162 -1.171823 0.735479 2.742637 0.831307 0.405765 2.818655 -1.910372 0.779703 0.000000 0.000000 0.000000 -1.528037 -1.183198 0.463396 -1.410778 1.889832 0.126202 -1.441742 -0.373173 -0.680047 0.000000 0.000000 0.000000 
